<?xml version="1.0" standalone="no"?>
<!DOCTYPE svg PUBLIC "-//W3C//DTD SVG 20010904//EN"
 "http://www.w3.org/TR/2001/REC-SVG-20010904/DTD/svg10.dtd">
<svg version="1.0" xmlns="http://www.w3.org/2000/svg"
 width="700.000000pt" height="700.000000pt" viewBox="0 0 700.000000 700.000000"
 preserveAspectRatio="xMidYMid meet">
<metadata>
Created by potrace 1.14, written by Peter Selinger 2001-2017
</metadata>
<g transform="translate(0.000000,700.000000) scale(0.100000,-0.100000)"
fill="#000000" stroke="none">
<path d="M819 6996 c-2 -2 -24 -6 -49 -9 -292 -33 -529 -189 -643 -421 -73
-149 -99 -268 -102 -471 -4 -190 7 -296 51 -490 92 -416 273 -848 582 -1388
87 -150 301 -479 419 -642 24 -32 43 -62 43 -65 0 -4 -27 -43 -60 -88 -33 -45
-60 -86 -60 -91 0 -5 -4 -11 -8 -13 -10 -4 -100 -136 -205 -298 -189 -294
-355 -597 -472 -862 -25 -56 -50 -112 -55 -123 -41 -86 -153 -414 -180 -525
-6 -25 -13 -54 -16 -65 -78 -302 -81 -655 -7 -875 41 -122 117 -245 202 -323
107 -99 268 -177 419 -203 12 -2 34 -7 50 -10 51 -10 337 -13 402 -3 36 5 83
12 105 15 594 85 1357 445 2198 1036 l58 41 42 -31 c221 -163 603 -409 867
-557 121 -68 485 -242 610 -293 300 -120 614 -207 830 -230 87 -9 321 -9 392
0 417 53 679 316 736 738 9 69 9 315 0 395 -33 288 -136 635 -296 995 -85 193
-255 523 -326 635 -20 30 -36 57 -36 60 0 15 -321 504 -397 604 -19 25 -32 50
-29 57 3 7 33 52 68 101 153 211 322 472 451 696 325 562 525 1092 585 1552 4
28 6 127 6 220 -1 137 -6 188 -23 260 -53 221 -145 370 -301 486 -203 150
-538 203 -915 143 -22 -4 -49 -8 -60 -9 -132 -19 -539 -143 -690 -210 -16 -8
-79 -35 -140 -61 -166 -70 -496 -242 -694 -360 -155 -93 -498 -318 -618 -406
l-42 -31 -43 29 c-24 16 -45 31 -48 34 -3 4 -34 26 -70 51 -36 24 -67 47 -70
50 -3 3 -70 48 -150 101 -726 477 -1357 752 -1925 839 -66 11 -378 22 -386 15z"/>
</g>
</svg>
